# xmcd CD database file
#
# Track frame offsets:
#	150
#	35035
#	68033
#	99837
#	132009
#	157759
#	187476
#
# Disc length: 2935 seconds
#
# Revision: 0
# Processed by: cddbd v1.5.2PL0 Copyright (c) Steve Scherf et al.
# Submitted via: CDex 1.51
#
DISCID=570b7507
DTITLE=Interplay Trio - Interplay Trio
DYEAR=2001
DGENRE=Jazz
TTITLE0=Body and Soul
TTITLE1=All The Things You Are
TTITLE2=Be Your Own Bossa
TTITLE3=Tenor Madness
TTITLE4=The Days Of Wine And Roses
TTITLE5=Green Dolphin St.
TTITLE6=Old Folks
EXTD=YEAR: 2001
EXTT0=
EXTT1=
EXTT2=
EXTT3=
EXTT4=
EXTT5=
EXTT6=
PLAYORDER=
